<svg width="24" height="24" viewBox="0 0 24 24" fill="none" xmlns="http://www.w3.org/2000/svg">
<g clip-path="url(#clip0_3_1699)">
<rect width="24" height="24" rx="6" fill="#E9D6FD"/>
<path d="M11.9999 12C13.6574 12 14.9999 10.6575 14.9999 9C14.9999 7.3425 13.6574 6 11.9999 6C10.3424 6 8.99994 7.3425 8.99994 9C8.99994 10.6575 10.3424 12 11.9999 12ZM11.9999 7.5C12.8249 7.5 13.4999 8.175 13.4999 9C13.4999 9.825 12.8249 10.5 11.9999 10.5C11.1749 10.5 10.4999 9.825 10.4999 9C10.4999 8.175 11.1749 7.5 11.9999 7.5Z" fill="#A401EE"/>
<path d="M12 12.7501C9.9975 12.7501 6 13.7551 6 15.7501V18.0001H18V15.7501C18 13.7551 14.0025 12.7501 12 12.7501ZM16.5 16.5001H7.5V15.7576C7.65 15.2176 9.975 14.2501 12 14.2501C14.025 14.2501 16.35 15.2176 16.5 15.7501V16.5001Z" fill="#A401EE"/>
</g>
<defs>
<clipPath id="clip0_3_1699">
<rect width="24" height="24" rx="6" fill="white"/>
</clipPath>
</defs>
</svg>
