<svg width="44" height="44" viewBox="0 0 44 44" fill="none" xmlns="http://www.w3.org/2000/svg">
<g clip-path="url(#clip0_3_1647)">
<rect width="44" height="44" rx="12" fill="#575EFB"/>
<path d="M28.6667 26.6667V20C28.6667 19.6464 28.5262 19.3072 28.2761 19.0572C28.0261 18.8071 27.687 18.6667 27.3333 18.6667H22.824C22.5763 18.6667 22.3336 18.5977 22.1229 18.4674C21.9123 18.3372 21.742 18.1509 21.6313 17.9293L21.0353 16.7373C20.9246 16.5157 20.7543 16.3293 20.5435 16.1991C20.3327 16.0688 20.0898 15.9999 19.842 16H16.6667C16.313 16 15.9739 16.1405 15.7239 16.3905C15.4738 16.6406 15.3333 16.9797 15.3333 17.3333V26.6667C15.3333 27.0203 15.4738 27.3594 15.7239 27.6095C15.9739 27.8595 16.313 28 16.6667 28H27.3333C27.687 28 28.0261 27.8595 28.2761 27.6095C28.5262 27.3594 28.6667 27.0203 28.6667 26.6667Z" stroke="white" stroke-width="2" stroke-linecap="round" stroke-linejoin="round"/>
</g>
<defs>
<clipPath id="clip0_3_1647">
<rect width="44" height="44" rx="12" fill="white"/>
</clipPath>
</defs>
</svg>
