<svg width="44" height="44" viewBox="0 0 44 44" fill="none" xmlns="http://www.w3.org/2000/svg">
<g clip-path="url(#clip0_3_1636)">
<rect width="44" height="44" rx="12" fill="#C000FC"/>
<path d="M28.3334 26.6667V20C28.3334 19.6464 28.1929 19.3072 27.9429 19.0572C27.6928 18.8071 27.3537 18.6667 27.0001 18.6667H22.4907C22.2431 18.6667 22.0003 18.5977 21.7897 18.4674C21.579 18.3372 21.4088 18.1509 21.2981 17.9293L20.7021 16.7373C20.5913 16.5157 20.421 16.3293 20.2102 16.1991C19.9994 16.0688 19.7565 15.9999 19.5087 16H16.3334C15.9798 16 15.6407 16.1405 15.3906 16.3905C15.1406 16.6406 15.0001 16.9797 15.0001 17.3333V26.6667C15.0001 27.0203 15.1406 27.3594 15.3906 27.6095C15.6407 27.8595 15.9798 28 16.3334 28H27.0001C27.3537 28 27.6928 27.8595 27.9429 27.6095C28.1929 27.3594 28.3334 27.0203 28.3334 26.6667Z" stroke="white" stroke-width="2" stroke-linecap="round" stroke-linejoin="round"/>
</g>
<defs>
<clipPath id="clip0_3_1636">
<rect width="44" height="44" rx="12" fill="white"/>
</clipPath>
</defs>
</svg>
